 <svg style="width: 100%; height: auto; min-height: 350px; max-height: 600px; display: block; margin: 0 auto;" viewBox="0 0 1165 834" fill="none" xmlns="http://www.w3.org/2000/svg" id="tj-map">
                    <path id="KH" data-target="khatlon" data-region="KH" d="M463.193 472.29C461.774 468.51 456.823 468.213 455.37 464.384C454.859 460.291 453.076 460.555 449.775 461.414C445.847 460.143 447.531 447.847 441.952 455.158C437.414 455.802 432.149 453.888 428.617 457.799C422.296 464.087 416.206 477.373 418.814 458.542C422.973 449.976 412.922 452.287 416.008 447.335C415.744 444.365 413.07 446.659 411.733 444.942C409.472 441.014 405.577 440.734 404.488 436.129C400.362 434.941 403.811 431.887 397.243 433.653C395.955 434.941 394.09 435.254 392.885 436.624C391.318 436.657 390.245 434.924 389.023 434.231C385.64 434.627 384.089 440.074 381.118 442.054C370.984 448.194 370.308 470.194 356.989 459.846C355.388 459.185 354.794 457.089 353.11 456.627C350.783 456.825 354.051 459.053 349.974 458.608C347.301 461.133 347.053 464.467 345.04 467.669C343.554 470.045 341.557 470.557 341.079 473.264C340.22 474.964 339.775 477.027 337.943 477.885C337.547 478.958 337.299 479.898 336.127 480.278C336.078 482.126 335.302 484.288 333.074 484.321C332.81 484.899 328.436 487.061 327.974 487.127C327.133 488.513 325.68 489.751 326.241 491.501C325.878 495.148 319.244 493.729 323.436 490.511C323.766 488.018 325.928 480.261 320.878 482.192C318.204 485.922 311.503 486.45 307.46 484.833C304.637 486.368 304.043 488.976 300.297 488.381C297.953 490.197 294.949 489.9 292.309 489.372C287.605 482.11 278.528 487.655 272.537 484.437C264.829 481.45 264.268 489.273 262.486 494.736C262.964 496.32 261.693 497.756 260.175 498.036C258.888 497.805 257.221 495.577 256.874 497.706C257.749 498.3 256.775 499.984 256.462 500.347C253.672 500.628 253.029 496.386 250.371 497.459C249.48 498.994 247.582 498.565 246.576 498.449C244.578 493.283 241.492 501.519 238.505 500.099C236.161 494.389 230.385 500.776 227.216 502.575C224.823 503.879 221.803 503.615 219.723 505.546C217.66 509.919 209.375 508.451 207.526 504.391C205.843 503.747 206.685 506.866 205.463 507.444C203.103 508.071 200.776 508.748 200.199 511.471C194.521 512.923 194.818 516.901 187.754 515.597C185.394 516.406 185.658 519.954 183.711 521.439C182.704 522.446 181.004 522.727 180.08 523.833C179.42 529.18 186.154 526.424 179.667 536.854C176.317 544.133 171.366 551.164 170.689 559.251C170.194 560.637 168.544 561.528 167.966 562.799C168.444 566.347 172.917 563.74 175.129 564.78C176.845 566.446 177.967 565.473 179.09 564.037C181.978 564.879 180.245 568.625 179.915 570.622C179.37 574.583 181.714 579.386 179.007 582.736C175.987 581.218 175.822 584.882 175.871 587.011C171.333 594.685 177.126 604.835 163.51 601.584C162.222 588.067 155.307 596.154 145.801 593.431C143.919 592.919 141.014 593.117 139.381 591.698C137.681 589.024 134.974 590.097 132.762 588.348C129.61 591.005 127.844 581.894 114.839 585.773C109.211 582.357 110.944 591.698 109.739 594.751C106.141 603.036 100.084 611.899 96.7336 619.953C93.2512 623.204 92.6076 628.337 89.6533 631.737C78.2819 633.932 77.4402 650.42 68.8085 656.857C65.7222 662.93 65.8047 670.209 62.2233 676.134C60.6224 687.076 69.2211 697.473 62.8835 708.168C61.3816 713.598 59.5331 718.566 56.1332 722.906C54.7634 727.462 56.9584 732.578 54.1032 736.77C49.1189 740.104 55.7041 746.574 59.6486 748.356C62.9495 749.874 66.96 748.538 70.1618 749.561C72.2084 751.327 69.5842 754.347 71.0035 756.674C71.4657 758.853 73.0171 760.47 75.2946 760.024C78.5955 762.748 85.0816 763.276 84.471 768.524C86.8971 775.06 89.0262 773.69 94.7531 773.36C97.6414 774.367 105.184 769.696 108.188 767.468C110.119 765.306 110.993 762.434 114.03 761.46C115.004 759.744 117.017 758.126 118.717 759.925C120.599 760.949 122.167 759.645 124.065 759.777C137.384 764.349 121.473 732.908 143.276 743.57C144.942 743.982 146.51 743.19 147.88 742.332C154.498 742.018 148.656 738.536 149.283 735.499C151.577 733.189 154.63 735.417 156.578 737.067C161.793 733.931 168.263 734.79 172.983 731.307C173.561 730.515 173.94 729.294 175.178 729.211C178.033 728.666 192.821 725.465 186.682 721.817C185.79 720.645 184.173 717.13 186.83 717.047C187.573 717.675 187.078 719.375 188.514 719.441C190.758 720.233 190.841 716.965 188.679 717.576C188.2 716.057 189.009 715.1 189.966 714.06C189.322 706.93 197.591 716.899 203.879 708.795C206.965 708.993 207.262 712.608 207.675 715.216C208.962 717.84 211.306 720.398 213.848 717.939C215.085 713.565 209.441 713.186 208.995 709.456C216.043 700.807 217.842 710.132 223.09 714.258C226.259 716.272 231.969 711.981 228.85 708.68C227.497 707.178 225.219 707.194 224.955 704.785C224.377 704.026 223.272 702.359 224.955 702.326C226.836 703.828 227.926 706.369 229.675 703.035C235.716 701.748 236.788 709.72 241.195 712.096C239.578 724.012 247.054 718.351 248.721 725.003C255.966 738.85 251.675 733.255 264.879 739.642C269.054 741.028 273.312 751.03 277.62 746.772C280.129 742.811 285.08 744.907 287.721 741.507C289.057 739.295 290.196 736.258 292.457 734.872C302.739 738.85 300.016 731.736 305.479 726.273C305.908 725.762 306.997 723.138 306.997 723.138C310.958 720.117 306.651 718.12 303.614 717.642C302.525 715.958 302.261 713.862 301.072 712.476C303.977 709.885 299.719 709.868 299.967 707.393C301.617 706.6 301.914 705.263 300.297 704.092C299.372 703.663 297.408 704.785 296.996 703.497C298.646 702.342 297.574 700.065 299.191 698.926C299.092 698.134 298.102 697.573 298.432 696.648C298.91 694.899 297.689 695.064 296.649 694.371C296.022 693.331 295.857 691.879 297.078 691.317C296.781 690.41 296.996 689.436 296.996 688.528C295.114 687.026 295.114 687.571 297.161 686.498C296.022 682.818 299.653 685.046 298.679 681.332C298.745 678.593 305.017 678.84 303.135 675.919C302.904 673.823 305.099 673.08 306.799 672.965C308.417 665.752 313.352 669.268 313.385 664.234C315.893 662.385 312.378 660.19 314.787 658.309C315.2 657.566 315.266 656.543 315.943 655.998C316.504 655.553 316.817 657.022 317.362 656.758C318.55 657.203 320.184 657.401 319.904 655.47C321.043 654.546 321.868 657.253 323.04 657.5C325.499 658.639 330.252 657.302 331.82 655.091C335.814 656.659 340.253 656.642 344.33 657.533C345.254 657.632 344.495 659.019 345.535 658.936C347.515 658.87 349.298 658.342 350.602 656.906C355.503 654.975 357.665 662.088 362.105 660.884C365.323 659.646 364.663 655.091 367.518 653.523C392.572 646.756 370.011 665.026 387.769 660.9C389.519 663.112 387.951 664.217 391.829 664.283C395.064 666.825 396.566 663.607 401.088 667.898C401.864 667.601 404.092 668.178 404.257 669.367C405.544 669.895 407.921 669.02 409.456 669.367C412.624 670.208 412.113 669.581 413.862 667.568C415.711 666.132 416.024 662.484 415.991 660.207C416.866 657.863 418.384 662.039 419.045 659.877C424.029 660.223 415.777 655.899 422.345 657.236C424.59 654.909 417.708 651.955 425.234 651.889C425.745 651.724 425.927 650.734 426.471 650.816C427.396 653.358 430.532 652.334 430.185 649.661C429.69 648.159 428.832 646.492 428.617 645.056C431.571 643.587 430.977 643.521 431.258 640.369C435.499 640.6 438.701 635.599 434.889 632.562C437.018 630.07 437.018 626.621 434.658 624.31C436.209 621.967 436.044 620.811 433.535 619.342C432.43 614.738 436.473 612.658 430.598 610.298C429.162 605.413 424.078 610.859 422.461 606.238C416.206 605.198 418.698 597.26 417.724 592.787C419.012 590.774 419.754 593.348 420.547 594.256C422.098 594.537 424.524 593.777 423.93 591.764C425.184 588.199 429.657 591.764 431.72 590.179C434.096 588.05 428.848 586.037 432.743 584.766C433.073 584.436 433.024 583.776 433.42 583.528C436.572 584.188 433.519 580.69 436.358 581.152C437.166 579.782 437.051 579.93 438.619 580.36C439.543 580.095 440.418 579.534 441.045 578.808C433.37 575.507 434.889 561.825 439.807 556.841C441.787 554.431 441.16 550.932 443.108 548.358C442.151 545.569 444.478 543.44 444.593 540.7C439.015 540.617 447.778 530.665 446.904 527.034C446.557 523.403 444.808 519.822 444.593 516.158C449.016 505.694 439.097 515.151 439.972 506.85C442.448 505.43 442.91 503.763 441.952 501.172C443.289 496.815 448.455 494.835 448.868 489.966C454.545 486.764 458.407 480.327 463.309 475.888C463.623 474.666 463.606 473.412 463.193 472.29Z" fill="#D5DBEE" stroke="#041F6D" fill-rule="nonzero" stroke-width="1.80046"></path>
                    <text x="230" y="620" pointer-events="none" data-region="KH" style="font-family: 'Open Sans', sans-serif; font-size: 20px; font-weight: 500; fill: #041f6d; z-index: 10;">Хатлон</text>
                    <path id="DRS" data-target="drs" d="M720.592 354.78V354.697C715.36 354.235 719.536 347.402 716.78 344.844C710.244 342.649 716.664 337.054 710.31 336.444C705.326 336.08 701.2 339.662 697.965 333.836C697.717 328.72 699.764 329.627 696.529 324.346C697.47 321.359 696.265 318.355 692.667 319.131C690.175 323.026 686.758 321.078 683.177 321.474C680.47 325.782 674.529 327.911 674.859 333.572C671.013 335.899 665.765 332.862 661.589 334.661C655.78 339.282 653.024 332.879 651.258 328.026C650.614 326.888 649.03 325.782 649.822 324.329C651.951 323.174 652.248 320.583 653.519 318.701C659.295 315.846 658.272 308.749 653.931 304.92C653.766 303.567 654.773 301.025 652.925 300.464C648.997 302.065 644.986 302.313 640.745 301.983C637.444 302.989 633.499 306.62 631.337 302.148C629.621 301.157 628.119 302.197 626.799 303.072C623.201 300.811 621.204 303.254 622.095 297.692C616.368 291.42 619.619 291.882 622.26 285.511C624.818 276.319 617.226 275.064 611.252 270.641C605.888 269.932 614.965 275.642 604.023 275.427C601.943 275.46 601.96 277.573 601.167 278.959C597.57 284.505 591.215 274.916 588.987 281.649C589.07 290.017 586.066 284.901 584.036 290.133C582.881 291.437 580.851 291.09 579.927 289.72C579.613 288.251 579.596 285.957 577.401 287.277C574.563 291.767 570.932 290.43 566.822 292.74C556.854 291.833 550.665 286.997 552.794 302.23C548.172 311.39 548.684 313.816 536.322 309.129C534.589 308.337 532.972 304.079 530.942 305.944C530.628 308.881 530.942 315.978 526.156 314.344C524.588 313.041 525 309.03 521.947 310.136C518.316 314.163 513.745 316.969 508.843 312.826C506.054 313.387 504.948 311.044 503.793 308.881C501.961 305.366 507.159 303.039 505.377 299.094C502.258 292.773 499.155 294.44 494.913 290.347C491.678 292.097 495.705 292.41 489.929 294.209C489.335 295.629 489.302 297.163 487.635 297.84C485.902 301.273 482.304 297.89 480.076 300.134C478.211 303.716 479.894 308.205 473.953 306.934C472.22 308.403 470.437 308.122 468.407 307.792C464.611 308.667 469.728 311.357 468.506 313.437C466.311 315.648 462.912 313.849 461.327 311.902C456.557 310.466 456.31 317.381 451.474 313.536C451.474 313.536 450.418 314.113 450.137 314.691C447.133 315.83 444.163 314.262 441.142 315.648C439.624 315.698 439.492 312.842 437.594 314.014C422.905 327.828 428.715 316.209 418.928 324.445C412.508 328.934 410.131 312.083 403.909 320.913C401.945 322.96 402.787 326.524 399.502 327.333C397.571 329.033 393.214 328.571 394.914 325.32C395.459 322.167 392.389 320.88 390.408 323.306C387.256 323.983 385.276 327.861 382.173 327.812C381.315 324.23 374.895 320.897 372.98 325.798C372.485 327.614 374.614 329.974 373.459 331.641C366.774 331.228 370.934 333.39 365.702 334.711C364.744 336.411 363.077 339.332 360.717 338.16C358.621 336.741 359.43 335.074 359.182 333.176C357.152 331.624 357.582 330.766 359.381 329.545C358.621 325.221 353.092 331.509 350.485 331.179C349.263 335.305 345.946 334.182 344.065 337.12C343.124 340.669 348.471 342.005 347.316 345.356C342.81 350.059 350.023 351.974 340.896 361.431C341.061 364.072 342.332 369.914 337.645 368.412C336.506 366.844 334.756 364.534 332.479 365.161C331.604 368.28 329.046 370.937 325.497 370.706C323.55 368.231 324.507 363.692 324.92 360.655C324.672 354.483 320.034 356.925 319.853 352.321C319.358 348.871 315.578 348.756 313.631 351.083C309.571 351.165 304.9 351.132 301.286 352.898C300.031 352.981 298.315 352.651 297.836 354.235C297.952 355.341 298.628 356.661 297.638 357.684C293.776 358.493 297.556 362.322 297.16 364.765C296.995 367.604 293.545 370.211 290.839 369.27C290.129 367.62 289.403 366.861 287.587 367.835C286.036 367.653 284.715 367.455 283.379 368.412C279.451 367.818 276.777 364.171 272.469 367.554C270.604 372.901 268.376 367.372 266.346 372.439C260.966 382.21 258.391 375.228 253.803 379.041C249.743 378.117 248.373 371.185 243.174 372.918C240.517 374.007 238.339 371.548 235.896 373.297C232.595 373.974 235.401 368.379 229.195 370.904C224.706 370.327 220.167 371.333 215.893 371.284C215.018 369.617 213.582 368.957 211.684 369.369C209.126 367.356 206.915 369.881 204.505 370.607C201.798 369.947 199.966 372.126 197.425 372.324C196.17 372.01 194.998 371.697 193.876 372.604C191.07 374.42 188.991 373.644 186.994 371.267C185.393 371.234 183.214 371.267 181.729 371.746C180.557 373.677 182.175 376.532 181.349 378.645C177.735 381.335 180.805 382.309 180.673 385.346C179.484 387.508 177.636 383.778 175.986 385.148C174.929 393.598 174.121 388.679 169.087 391.172C168.509 392.129 169.78 393.647 169.087 394.522C165.687 395.776 161.214 393.532 157.501 394.324C154.25 395.958 150.668 395.941 147.07 395.958C142.449 395.793 143.967 388.679 137.778 395.958C130.88 395.017 134.279 399.193 128.008 398.45C128.156 399.539 127.15 399.836 126.588 400.562C126.192 401.355 126.456 402.411 125.928 403.121C125.384 403.847 124.162 403.863 123.618 404.606C122.116 407.808 128.965 407.725 126.588 411.109C120.729 412.247 124.822 415.251 120.746 416.126C117.528 414.608 117.346 416.572 115.399 418.354C112.444 418.734 105.595 416.506 107.328 421.902C108.351 422.629 110.282 422.001 111.041 423.305C110.744 430.155 119.508 431.128 113.93 434.677C111.207 435.32 107.097 432.845 105.447 436.162C104.258 439.133 107.609 441.377 107.922 444.233C107.278 446.89 109.672 448.573 109.243 450.983C106.107 453.194 109.325 456.792 106.767 459.549C104.423 462.09 104.225 467.718 106.849 470.095C106.849 470.095 107.757 472.405 107.922 472.818C108.087 473.231 110.315 474.716 110.315 474.716C111.355 476.053 111.058 477.571 111.306 479.09C111.702 480.096 112.873 480.69 113.204 481.73C113.831 484.569 110.2 485.873 110.15 488.645C109.688 491.715 105.595 491.039 105.133 494.24C103.268 497.145 105.595 500.661 108.351 497.376C111.174 494.802 116.471 493.778 118.155 498.119C118.089 501.865 121.555 502.806 124.245 504.374C124.806 506.536 126.044 508.005 127.876 509.243C128.107 510.481 128.239 512.032 129.774 512.379C145.717 509.457 131.738 518.139 140.568 526.044C143.423 530.599 149.909 524.542 149.628 530.17C149.513 531.903 148.836 533.884 150.586 535.039C156.181 538.01 151.279 545.734 149.876 550.272C148.589 553.359 149.331 557.055 147.483 559.911C144.231 561.495 144.083 561.429 142.796 564.928C140.221 566.248 137.729 567.701 137.366 570.853C136.078 571.992 135.105 573.23 134.725 574.979C135.204 576.299 135.237 577.95 134.065 579.023C134.477 580.673 134.197 582.323 132.662 583.215C131.936 584.931 134.263 586.582 132.893 588.348C135.105 590.097 137.811 589.024 139.511 591.698C141.129 593.101 144.066 592.919 145.931 593.431C150.899 595.906 162.716 589.783 162.815 597.705C162.7 598.267 163.079 601.105 163.64 601.584C176.992 604.934 171.612 594.586 176.002 587.011C175.953 584.849 176.101 581.251 179.138 582.736C181.845 579.402 179.501 574.583 180.046 570.622C180.376 568.625 182.109 564.862 179.22 564.037C178.775 563.987 178.775 564.862 178.395 565.11C176.695 566.677 175.573 564.35 173.774 564.532C171.843 564.433 168.328 565.704 168.097 562.799C168.658 561.528 170.325 560.653 170.82 559.251C171.496 551.163 176.448 544.116 179.798 536.854C186.284 526.424 179.551 529.18 180.211 523.849C181.135 522.76 182.818 522.479 183.842 521.456C185.789 519.954 185.525 516.422 187.885 515.613C194.982 516.917 194.652 512.923 200.329 511.487C200.94 508.748 203.218 508.087 205.594 507.46C206.799 506.883 205.974 503.763 207.657 504.407C209.489 508.467 217.791 509.936 219.854 505.562C221.95 503.648 224.954 503.895 227.347 502.592C230.516 500.793 236.276 494.405 238.636 500.116C241.606 501.535 244.709 493.3 246.706 498.465C247.729 498.581 249.594 499.01 250.502 497.475C253.11 496.386 253.886 500.661 256.592 500.363C256.939 500.017 257.83 498.251 257.005 497.723C257.335 495.594 259.018 497.805 260.306 498.053C261.775 497.772 263.095 496.369 262.616 494.752C264.514 489.19 264.745 481.549 272.667 484.453C278.658 487.672 287.752 482.143 292.439 489.388C295.113 489.916 298.067 490.213 300.427 488.398C304.157 489.009 304.785 486.384 307.59 484.849C311.65 486.467 318.335 485.939 321.008 482.209C326.471 480.014 324.045 490.708 322.081 492.507C322.362 494.174 325.052 493.927 326.042 492.673C326.29 492.26 326.372 491.517 326.372 491.517C325.811 489.768 327.263 488.546 328.105 487.144C328.699 487.028 332.825 484.965 333.205 484.338C335.466 484.288 336.159 482.176 336.258 480.294C337.512 479.898 337.595 479.007 338.074 477.901C339.906 477.043 340.335 474.98 341.209 473.28C341.704 470.557 343.669 470.062 345.17 467.685C347.2 464.483 347.431 461.149 350.105 458.624C354.182 459.07 350.914 456.809 353.241 456.644C354.908 457.089 355.502 459.185 357.119 459.862C359.083 460.242 361.196 461.661 362.714 462.915C367.369 465.209 373.475 450.752 376.132 447.269C379.07 442.995 383.823 440.305 386.679 435.815C388.857 430.782 391.712 439.281 394.171 435.568C396.548 434.644 399.684 431.772 402.077 433.835C402.506 434.363 402.556 435.188 403.067 435.65C403.48 436.013 404.256 435.749 404.635 436.146C405.592 438.374 406.187 440.866 408.992 441.245C410.478 442.599 411.138 445.157 413.283 445.767C414.67 445.371 416.023 445.602 416.172 447.335C416.155 448.26 414.785 449.299 415.759 450.224C419.571 451.379 421.106 455.043 418.977 458.542C419.588 461.661 416.914 465.308 418.812 467.933C421.387 469.418 421.684 465.044 423.334 463.988C430.068 455.901 431.075 454.663 442.116 455.175C447.728 447.897 446.011 460.159 449.939 461.43C453.059 460.539 455.204 460.456 455.534 464.401C457.564 468.923 465.206 469.666 463.555 475.855C472.187 472.488 462.813 468.609 471.527 464.087C474.927 464.269 474.613 462.767 476.363 460.951C479.911 457.37 485.126 450.191 479.02 446.461C476.016 446.675 470.999 442.978 474.316 440.173C479.152 440.486 482.898 440.173 484.582 434.858C488.84 432.762 491.035 427.233 496.3 427.497C497.306 426.193 498.412 425.715 500.046 425.566C511.583 416.72 500.409 443.589 512.127 433.175C515.577 432.614 518.58 438.671 521.551 434.264C524.208 435.056 524.555 432.333 526.024 430.765C528.021 430.254 529.407 428.752 531.091 427.629C532.873 427.53 534.259 426.986 535.679 425.946C550.202 426.309 538.534 429.527 544.492 437.416C546.159 440.42 546.819 444.051 550.285 445.388C550.549 445.652 550.582 446.164 550.4 446.477C546.241 449.167 548.932 453.871 548.106 457.832C539.656 464.516 550.466 467.372 555.962 463.873C559.148 466.761 562.548 463.972 566.112 463.51C567.548 463.559 568.357 465.028 569.38 465.804C574.299 465.606 571.328 470.342 571.311 473.297C571.146 477.225 573.969 481.268 578.194 480.657C580.026 480.773 580.488 482.456 581.214 483.793C585.224 488.365 589.053 485.972 592.074 481.978C594.962 481.252 597.685 483.166 600.524 483.183C602.471 484.173 603.181 491.979 605.723 486.929C605.393 481.961 608.594 484.8 608.495 479.799C610.08 476.548 612.11 480.988 613.925 481.483C620.725 482.291 615.79 471.795 621.534 469.649C623.316 469.402 625.528 469.814 626.006 467.471C625.297 460.06 631.733 463.856 631.436 456.611C632.823 454.515 633.697 456.281 634.82 457.337C637.262 457.452 637.477 456.743 639.292 458.789C641.388 459.367 642.164 457.42 643.039 456.017C656.275 447.814 645.597 462.602 655.714 453.838C657.958 447.533 661.127 454.762 663.685 445.14C663.917 443.754 664.032 442.038 665.616 441.526C675.255 442.335 666.755 431.838 675.404 436.822C678.028 437.779 679.942 434.462 682.649 435.733C683.92 436.129 684.943 437.614 686.395 437.301C688.013 434.908 694.499 434.198 692.799 430.782C690.191 427.25 691.875 426.771 695.341 426.441C696.182 425.649 696.347 424.197 696.661 423.058C693.344 421.358 691.148 417.463 690.389 413.881C689.036 412.313 686.164 410.531 688.706 408.567C692.766 405.299 686.593 399.292 690.043 395.166C692.023 393.053 695.143 392.739 696.083 389.604C699.417 387.029 706.712 386.072 706.349 380.675C704.93 378.777 705.012 378.067 705.986 375.971C703.692 369.964 710.706 370.03 713.116 365.953C718.744 365.507 720.922 360.111 720.592 354.78Z" fill="#D5DBEE" stroke="#041F6D" fill-rule="nonzero" stroke-width="1.80046"></path>
                    <text x="347" y="410" pointer-events="none" data-region="DRS" style="font-family: 'Open Sans', sans-serif; font-size: 20px; font-weight: 500; fill: #041f6d; z-index: 10;">ШНТҶ</text>
                    <path id="GBAO" data-target="gbao" d="M1162.81 671.133C1162.39 670.291 1160.96 669.532 1160.71 669.119C1160.41 664.548 1156.57 662.352 1153.56 659.547C1152.9 657.236 1151.53 652.747 1148.27 654.414C1146.6 662.402 1142.99 654.694 1139.87 652.73C1137.16 652.334 1133.92 651.641 1132.9 648.522C1130.31 647.07 1129.04 644.594 1130.72 641.887C1129.8 639.791 1127.41 635.649 1126.6 633.487C1122.64 631.027 1123.28 625.185 1127.77 623.832C1130.28 621.472 1125.61 618.154 1131.3 617.775C1134.12 616.058 1132.19 609.737 1136.76 610.298C1139.73 607.723 1139.6 601.419 1135.08 600.627C1133.66 600.511 1132.01 601.501 1130.62 600.874C1128.96 599.95 1128.23 597.97 1127.17 596.501C1124.65 595.312 1123.74 594.784 1124.65 591.797C1125 591.582 1126.68 589.585 1126.5 588.942C1128.58 586.582 1128.87 583.116 1124.9 583.644C1123.38 580.376 1125.08 576.134 1123.54 572.635C1122.77 570.143 1122.93 567.816 1124.47 565.737C1124.62 563.377 1124.2 558.343 1120.69 560.026C1119.73 561.693 1117.55 563.525 1116.23 561.033C1116.25 559.911 1116.58 558.376 1114.8 558.178C1111.83 554.761 1117.22 553.59 1110.26 552.55C1106.68 549.893 1108.41 545.635 1107.65 541.954C1106.23 538.538 1104.51 535.6 1105.55 531.689C1102.14 531.391 1102.75 530.385 1101.33 528.091C1097.71 528.487 1098.82 529.213 1097.24 525.697C1093.62 523.568 1090.07 531.424 1087.84 523.981C1086.89 521.852 1086.08 519.574 1088.19 518.007C1090.5 505.892 1083.72 516.158 1085.96 504.506C1082.91 502.311 1082.05 503.565 1083.73 499.373C1080.5 494.95 1084.07 494.736 1085.62 491.006C1087.6 490.51 1087.09 488.827 1085.96 487.589C1083.92 485.295 1080.57 487.325 1078.62 484.685C1075.88 480.36 1075.37 481.697 1071.79 483.826C1068.32 481.763 1064.54 481.351 1060.51 481.615C1050.15 477.093 1041.68 469.253 1031.81 464.186C1025.34 459.631 1027.77 457.37 1018.66 458.542C1016.13 455.967 1015.69 453.673 1012.34 452.567C1008.23 452.336 1004.1 449.465 1000.07 451.627C999.877 454.482 998.375 457.75 995.239 455.984C992.549 456.165 992.433 458.294 992.797 460.44C992.499 461.793 991.707 463.378 992.549 464.731C996.708 466.893 997.566 472.702 991.377 470.689C985.287 469.303 987.02 468.956 983.736 473.544C981.821 473.759 980.27 471.844 979.032 470.689C970.153 470.54 971.523 468.048 968.106 461.694C965.202 460.291 965.565 465.111 961.637 462.618C956.157 458.228 952.543 457.849 953.731 449.844C955.431 445.239 947.476 443.176 949.358 438.588C944.357 437.119 944.109 431.112 947.674 428.075C947.426 424.527 943.284 420.202 943.3 416.225C942.657 413.667 939.554 414.31 938.085 412.858C936.468 408.22 939.95 404.358 942.459 401.008C943.267 393.829 949.522 397.872 953.715 398.648C958.402 404.556 958.847 395.034 959.937 391.931C957.973 390.148 958.748 388.102 958.847 385.874C949.836 366.415 950.496 386.237 942.376 377.721C941.435 374.321 943.069 372.01 938.514 370.838C937.854 368.825 940.214 365.574 939.686 363.775C938.597 362.405 937.243 361.282 936.913 359.566C935.362 359.285 933.91 359.384 933.134 357.635C934.157 356.199 934.322 355.077 932.804 353.855C931.021 353.674 928.975 353.393 928.694 351.248C929.321 347.204 926.268 340.405 922.472 338.82C919.963 339.365 916.613 341.164 914.781 338.061C913.543 336.526 911.53 336.014 912.355 333.737C917.108 325.567 909.549 332.367 909.83 324.858C909.764 322.283 911.332 322.101 913.378 322.2C917.983 319.032 914.534 315.318 910.127 317.909C909.483 317.678 909.912 316.424 909.384 315.978C908.84 315.516 907.684 316.127 907.321 315.533C905.11 310.02 912.537 313.503 914.864 311.539C916.118 309.674 917.488 308.023 919.303 306.802C920.211 303.815 917.488 301.356 918.131 298.187C914.864 301.339 906.017 291.998 899.366 298.748C896.098 302.808 889.876 297.56 887.764 302.874C881.789 304.59 889.348 310.169 883.225 312.281C880.568 313.866 877.548 313.437 874.742 314.295C872.53 313.8 869.51 313.255 869.791 316.473C869.295 320.071 864.889 318.19 862.644 319.84C857.297 322.019 854.211 317.216 849.54 316.226C846.619 317.431 843.4 317.497 841.304 320.088C835.148 321.903 835.61 316.49 828.613 321.012C823.612 321.639 823.793 310.68 815.838 322.778C813.561 324.28 812.521 322.134 811.63 320.418C805.16 316.407 805.49 324.247 801.546 321.755C801.265 320.632 802.156 318.916 800.291 318.652C794.779 319.494 791.016 313.041 785.504 313.948C778.522 314.691 775.684 309.723 774.248 319.411C770.6 323.108 769.296 321.491 767.861 317.315C765.038 315.071 760.516 316.638 757.281 317.15C755.416 318.834 759.625 322.679 755.598 322.861C752.33 322.877 748.716 322.233 745.596 323.702C741.767 329.165 739.011 321.854 736.189 326.558C734.869 328.422 732.74 329.627 731.32 331.261C731.188 334.017 730.528 336.378 728.795 338.655C728.531 343.705 725.082 346.891 722.16 350.588C721.781 352.106 723.167 354.763 720.592 354.648C720.923 360.012 718.793 365.425 712.868 365.838C710.475 369.931 703.445 369.848 705.739 375.856C704.748 378.001 704.699 378.645 706.102 380.559C706.465 385.973 699.17 386.913 695.836 389.488C694.912 392.607 691.776 392.938 689.796 395.034C686.363 399.16 692.519 405.151 688.475 408.435C685.934 410.399 688.805 412.181 690.159 413.749C690.786 417.199 693.344 421.44 696.43 422.942C696.166 424.064 695.902 425.533 695.11 426.309C685.983 426.639 697.586 432.168 690.159 434.281C688.277 434.957 686.841 437.978 684.729 436.938C679.876 432.68 677.813 439.215 673.143 435.601C667.795 433.835 674.397 441.922 665.419 441.394C661.557 444.117 664.643 451.313 657.084 450.933C655.945 452.287 655.747 454.251 653.701 454.795C647.974 461.546 653.47 448.689 645.003 454.911C642.94 455.208 642.395 456.693 641.389 458.179C639.755 459.417 638.632 458.36 637.527 457.205C636.602 456.908 635.53 457.535 634.622 457.205C632.278 454.053 630.875 455.786 631.007 459.02C630.793 461.133 628.862 461.381 627.377 462.272C624.884 464.005 626.931 467.636 624.472 469.154C617.243 468.84 618.431 476.02 616.863 480.74C612.655 484.42 608.727 472.884 607.918 482.308C605.921 483.826 605.376 484.107 605.508 486.781C604.089 490.411 602.092 487.061 601.762 484.85C601.118 482.985 599.633 482.737 597.9 482.803C588.773 477.753 589.252 491.897 581 483.645C580.257 482.275 579.844 480.641 577.979 480.509C570.817 481.136 570.354 472.752 572.071 467.702C572.368 465.655 570.503 465.985 569.166 465.655C565.651 460.176 559.957 467.801 555.765 463.724C550.285 467.223 539.492 464.368 547.909 457.684C548.717 453.739 546.044 449.035 550.203 446.329C550.846 444.678 548.272 444.629 547.546 443.672C545.879 439.166 540.053 433.604 543.321 428.933C543.898 425.319 537.792 426.028 535.481 425.797C532.131 427.332 529.061 428.818 525.826 430.633C524.374 432.218 524.011 434.908 521.353 434.132C517.739 439.463 513.712 429.346 510.246 434.611C500.872 439.678 511.022 417.034 499.865 425.434C498.297 425.616 497.076 426.028 496.118 427.365C490.854 427.118 488.659 432.647 484.4 434.726C482.849 440.008 478.822 440.354 474.135 440.041C470.883 442.846 475.802 446.527 478.839 446.329C484.978 450.042 479.713 457.238 476.181 460.819C474.382 462.717 474.729 464.12 471.346 463.955C461.938 469.435 473.029 471.283 462.433 476.449C458.225 481.021 454.148 486.698 448.933 489.784C448.504 494.67 443.354 496.617 442.018 500.991C444.543 506.454 437.578 505.364 440.615 509.639C441.836 511.322 443.833 510.283 445.302 510.629C446.606 512.313 444.939 514.277 444.642 515.977C444.741 518.353 445.682 520.697 446.127 523.057C450.204 528.866 438.469 540.205 444.642 540.518C444.526 543.274 442.199 545.371 443.156 548.176C441.225 550.751 441.836 554.25 439.856 556.659C434.937 561.66 433.419 575.309 441.093 578.627C442.265 575.722 445.632 574.5 446.573 571.48C446.606 569.846 445.88 568.08 447.811 567.189C455.419 564.433 452.811 559.498 461.476 559.168C462.598 557.732 462.169 557.32 464.298 557.584C469.646 555.933 463.869 551.791 469.943 541.773C474.811 535.683 462.45 532.53 470.883 522.908C482.073 522.908 469.794 506.85 484.516 506.239C486.463 502.872 483.262 495.379 489.484 495.346C491.613 496.155 492.256 499.324 494.782 500.479C499.403 502.889 503.034 499.637 505.311 495.792C507.605 493.151 510.081 497.888 512.771 495.907C514.158 494.868 515.23 493.399 515.148 496.254C516.122 497.987 519.637 497.442 520.347 495.693C520.726 494.455 519.67 492.788 520.264 491.649C526.041 489.751 521.832 496.65 526.998 491.022C525.578 481.945 534.062 481.4 540.944 480.922C550.302 484.685 549.229 495.429 552.942 502.757C554.065 503.12 555.385 502.691 556.425 503.582C558.224 503.648 559.478 503.648 560.072 505.579C565.618 508.566 563.357 514.722 570.519 518.518C574.002 521.522 578.491 519.673 582.287 521.175C583.558 522.232 584.928 523.09 586.43 523.502C585.241 525.565 587.288 527.827 589.252 528.817C589.912 529.163 590.869 527.001 591.018 528.124C600.425 517.148 601.597 536.788 599.121 542.647C600.59 547.202 601.993 553.177 595.919 554.992C594.401 556.923 592.338 556.577 590.143 556.28C590.143 556.28 588.311 555.306 587.766 556.511C582.469 561.825 589.549 563.954 583.459 565.803C583.31 568.922 583.112 568.344 580.141 568.46C578.425 568.641 578.524 570.853 578.821 572.107C579.069 572.883 580.521 573.114 580.488 573.923C576.593 578.379 576.775 579.27 578.838 584.7C578.64 585.542 577.22 585.575 576.857 586.35C576.444 587.192 577.138 588.348 576.692 589.173C570.652 591.5 578.359 597.029 581.99 593.975C585.225 593.101 584.779 597.837 585.802 599.785C587.585 605.528 593.576 597.194 597.075 597.128C599.996 597.557 603.148 598.25 605.03 595.296C605.839 594.768 606.928 594.735 607.687 594.14C608.248 593.695 608.166 592.556 608.842 592.309C614.239 592.358 612.688 588.1 616.88 588.331C618.728 589.948 621.171 591.467 623.696 591.698C625.148 591.863 628.136 594.075 629.275 593.926C632.707 593.48 634.869 596.253 632.806 599.207C634.374 605.198 631.767 610.81 633.12 616.834C632.691 624.591 617.986 612.328 616.319 624.145C615.956 626.439 617.441 628.255 618.481 630.12C620.791 634.378 616.187 637.481 615.659 641.557C615.163 643.637 615.923 645.799 615.659 647.862C614.998 649.694 613.183 651.08 612.671 652.995C613.711 657.797 609.486 661.28 610.674 666.264C612.127 670.456 613.529 669.68 612.671 674.698C615.229 677.982 615.345 682.273 617.408 685.673C617.325 688.99 617.325 692.407 615.923 695.493C616.929 698.744 615.692 702.375 617.408 705.461C621.303 714.869 614.866 709.356 610.262 712.096C610.509 716.404 609.899 721.355 608.628 725.514C603.379 724.755 604.502 730.779 606.532 733.271C603.066 733.552 603.643 735.004 603.693 738.041C603.726 740.203 602.835 742.249 602.505 744.296C602.637 745.963 604.254 747.531 603.99 749.214C598.428 754.496 605.013 761.691 606.532 767.253C605.046 778.922 614.256 772.931 615.725 780.061C621.633 788.808 628.581 802.473 627.443 812.689C627.443 812.689 623.977 813.647 624.769 815.363C625.561 817.08 624.422 818.714 625.314 820.05C629.126 822.675 631.222 827.23 635.15 829.441C641.801 834.426 650.928 832.363 658.421 831.389C661.342 831.702 664.131 832.825 666.475 830.349C668.621 829.755 669.561 828.401 670.354 826.47C671.426 825.447 673.077 824.936 673.935 823.632C674.612 822.328 674.628 820.612 675.882 819.605C696.001 814.67 669.825 807.425 702.949 790.673C704.765 786.811 706.102 788.758 708.957 790.227C713.529 791.102 721.286 788.197 721.814 783.361C724.025 782.206 726.435 781.777 727.772 779.334C729.175 778.278 731.254 778.592 732.69 777.701C735.397 772.122 741.817 770.34 747.61 770.389C750.465 768.244 749.64 764.415 751.752 762.021C761.853 762.352 772.218 761.691 781.757 757.252C783.077 757.664 783.886 759.232 784.761 760.256C786.23 768.178 791.23 763.705 793.706 759.051C796.363 755.75 795.01 751.244 798.03 748.174C804.731 742.414 803.79 732.33 810.111 725.96C824.107 718.236 818 727.66 830.758 710.825C831.583 710.017 832.722 710.627 833.696 710.314C834.224 708.267 837.888 708.515 839.736 707.541C847.345 708.614 852.725 703.25 854.871 696.516C856.109 695.344 859.129 696.318 860.07 695.377C861.671 689.238 864.361 688.974 870.368 689.271C877.96 690.872 872.91 682.158 884.364 677.223C887.203 677.206 889.893 674.599 892.269 676.975C893.243 676.315 894.134 676.612 895.042 677.223C896.148 686.218 902.023 672.866 906.133 674.285C911.365 673.625 922.258 670.043 923.396 677.899C924.189 679.055 925.723 678.906 926.945 678.758C929.8 677.932 932.441 680.342 935.708 679.5C940.511 679.418 944.802 677.157 949.655 678.329C951.718 678.807 956.817 676.414 956.718 679.731C956.256 686.284 958.138 693.413 954.111 699.074C952.262 700.807 951.949 701.847 948.895 701.434C945.694 704.851 940.99 700.312 938.976 703.877C940.973 708.729 938.465 708.185 934.685 709.753C934.388 721.52 949.671 708.63 952.675 717.394C954.061 717.658 955.959 718.5 957.461 716.635C960.448 714.819 963.749 719.573 967.71 717.13C968.09 716.981 968.502 716.684 968.634 716.288C967.743 709.984 974.658 712.311 975.698 707.805C977.926 705.362 980.27 704.834 982.845 707.293C986.443 707.475 986.013 705.577 986.971 703.002C988.935 701.748 990.024 704.323 991.757 704.603C995.767 700.725 995.668 700.692 1001.33 701.319C1001.2 700.543 1001.66 698.332 1002.58 697.952C1011.71 700.89 1012.6 691.07 1020.74 695.262C1024.15 694.453 1020.46 692.572 1025.44 691.73C1026.09 691.086 1025.94 689.915 1026.53 689.205C1027.84 688.38 1029.22 687.934 1029.3 686.102C1027.98 685.904 1026.42 683.197 1026.02 682.24C1028.63 676.975 1034.47 683.296 1038.71 681.728C1040.82 680.705 1042.31 678.395 1044.5 677.52C1052.66 676.381 1046.57 684.699 1053.58 683.577C1058.76 683.445 1053.88 681.002 1055.51 679.203C1056.88 678.494 1058.38 679.913 1059.62 679.962C1060.45 678.84 1061.69 675.935 1063.48 677.866C1064.23 686.267 1074.69 672.915 1074.74 683.742C1075.25 686.333 1077.08 685.442 1078.6 684.254C1078.6 684.254 1081.46 683.841 1082.13 683.494C1082.81 683.164 1084.07 684.089 1084.58 684.254C1085.09 684.419 1087.02 684.006 1087.43 683.742C1088.9 682.488 1090.07 682.389 1091.46 681.563C1092.2 680.524 1092.63 678.906 1094.15 678.708C1098.26 678.84 1096.05 684.353 1101.87 683.494C1116.02 687.62 1117.55 694.354 1125.41 705.181C1124.43 712.806 1132.32 712.162 1129.95 701.814C1132.04 695.642 1139.01 699.586 1143.4 697.952C1146.6 696.318 1151.15 695.344 1154.32 693.413C1159.49 694.024 1162.03 691.631 1159.27 686.696C1157.59 684.947 1152.92 681.596 1157.94 680.474C1160.51 677.685 1166.14 675.968 1162.81 671.133Z" fill="#D5DBEE" stroke="#041F6D" stroke-width="1.80046"></path>
                    <text x="750" y="550" pointer-events="none" data-region="GBAO" style="font-family: 'Open Sans', sans-serif; font-size: 20px; font-weight: 500; fill: #041f6d; z-index: 10;">ВМКБ</text>
                    <path id="SU1" data-target="su" d="M525.381 157.439C519.242 155.623 515.083 161.35 509.075 160.492C505.906 161.317 503.893 164.403 500.262 163.545C485.986 164.403 487.636 169.173 479.499 154.402C476.479 150.061 478.031 144.499 477.602 139.499C477.486 129.084 477.618 130.454 467.88 131.758C464.085 132.385 461.741 129.431 458.655 127.88C455.519 126.246 452.35 126.312 449.247 124.513C447.234 123.324 446.821 121.03 445.319 119.644C445.484 118.126 445.567 117.515 444.081 116.591C441.177 114.363 443.784 109.642 447.052 109.923C448.306 107.992 450.056 108.652 451.921 108.52C454.562 106.441 457.499 104.988 460.652 103.833C469.878 106.606 466.89 93.0887 473.079 93.6994C480.572 94.5906 482.949 85.6288 487.488 81.2717C491.944 79.6048 493.462 75.3302 497.456 73.5312C501.747 73.8118 502.407 73.9438 500.674 69.6692C504.685 65.2791 504.751 72.3759 508.497 62.5064C516.502 61.8297 504.949 49.4846 493.594 53.5281C490.079 53.33 491.597 48.9729 492.026 46.7779C492.026 45.4905 492.356 41.9916 494.254 43.3945C494.04 50.5573 504.767 49.369 500.592 44.1372C492.125 36.5288 483.593 28.5077 478.938 17.945C478.938 17.945 476.71 15.2218 476.298 14.8092C475.885 14.3966 472.007 13.2413 472.007 13.2413C470.917 1.11069 455.865 -2.99887 450.271 8.38905C451.096 13.6044 454.397 16.6247 449.28 20.3381C453.835 31.2804 442.976 30.1251 436.027 33.1124C434.757 35.0929 434.063 37.0239 431.984 39.2024C427.346 43.7411 422.263 38.7073 417.741 41.9256C416.569 42.2557 415.1 41.6946 414.11 42.4208C412.014 48.2137 409.241 55.9872 401.501 54.9475C399.702 56.8785 396.995 59.7832 394.123 57.9347C391.945 57.5716 391.235 59.2881 390.393 60.7239C387.059 62.5064 383.527 60.2453 380.062 60.7404C368.608 67.8868 372.618 61.7142 366.347 64.5859C361.445 69.2401 358.144 84.523 348.39 77.5913C345.832 75.1816 347.02 69.8178 342.63 69.6857C331.391 60.0803 336.54 66.583 332.579 54.2873C331.143 51.9107 328.865 51.3991 326.324 51.1515C320.415 48.2468 313.451 44.2692 306.799 47.0419C300.379 54.6999 301.353 64.6685 299.389 73.9768C297.342 78.7631 304.39 89.0947 295.114 87.6423C289.255 84.5065 285.327 90.283 281.366 93.8149C279.782 98.3866 287.72 99.3603 290.345 102.216C291.071 104.114 291.615 105.516 289.767 107.15C291.104 113.306 294.025 120.04 293.233 126.345C293.414 128.804 296.022 129.2 297.507 130.553C299.504 133.442 297.871 136.709 295.609 138.871C293.926 142.717 290.361 141.413 287.539 139.779C284.981 138.97 283.033 141.1 286.053 142.42C286.895 143.823 285.36 145.275 285.476 146.628C286.483 150.045 291.12 147.025 292.391 150.408C293.596 152.718 290.378 154.534 291.813 156.911C293.959 159.535 293.513 163.166 289.42 161.845C287.506 159.287 284.634 159.073 282.01 157.472C276.398 157.373 270.787 158.809 265.374 156.316C253.392 150.903 239.644 156.019 227.315 157.307C226.49 161.944 222.149 161.037 218.502 162.324C217.875 162.027 216.472 159.584 216.109 159.023C208.451 159.089 201.634 163.859 193.96 164.37C189.702 166.533 183.199 166.219 180.525 170.378C178.033 179.076 189.355 174.999 193.877 178.118C199.654 182.41 204.77 178.069 210.514 176.221C213.682 177.293 215.779 176.336 217.759 173.827C219.112 173.58 224.13 173.2 225.582 173.415C226.374 171.269 227.348 171.055 229.46 171.352C232.943 170.741 235.584 167.869 239.181 167.803C245.866 169.932 247.632 164.486 252.269 165.493C258.211 168.662 251.708 183.598 245.354 179.653C242.07 180.611 244.875 182.806 245.767 184.258C245.536 185.298 243.885 185.76 242.961 185.248C240.469 182.938 233.768 182.311 234.643 187.146C234.445 188.566 232.662 188.434 232.332 187.229C236.425 176.336 216.043 184.539 229.444 184.588C230.187 186.503 229.626 187.196 227.629 187.476C228.008 190.497 230.715 189.556 230.682 193.154C247.153 221.937 222.149 227.549 228.454 216.293C228.685 211.342 226.061 206.572 225.4 201.72C223.172 196.702 219.096 200.746 221.538 204.69C225.466 209.031 224.872 215.732 224.509 221.244C223.684 223.175 222.248 221.624 221.126 220.996C216.274 219.858 220.928 226.492 217.66 227.252C212.494 227.532 219.789 218.191 211.9 220.254C211.834 224.71 208.418 224.429 204.82 224.545C203.268 231.444 200.232 225.898 196.832 224.05C190.709 227.466 199.489 237.138 190.907 245.126C184.387 253.114 196.7 252.239 191.732 260.442C191.138 263.94 188.86 266.416 185.477 267.274C184.569 268.413 184.569 270.41 183.166 271.235C180.113 271.021 178.083 273.827 178.627 276.748C189.504 287.905 162.75 281.105 158.278 281.352C156.479 281.848 154.977 284.092 152.93 283.581C150.323 281.27 147.385 279.124 143.705 279.306C136.624 274.602 133.934 281.881 126.656 277.243C122.365 276.005 116.852 278.976 113.898 274.355C108.088 274.899 102.526 271.846 98.0043 268.43C93.0366 268.298 86.5174 268.446 82.936 264.139C74.7004 265.112 76.8789 257.141 70.5908 258.379C64.0221 261.646 64.4678 256.844 59.3845 256.811C55.737 262.686 52.4527 257.504 49.911 261.993C48.2936 263.082 47.2869 264.205 47.1878 266.202C45.1578 269.948 40.124 266.812 36.8892 268.265C33.7039 268.1 30.9312 269.882 27.9934 270.74C25.8149 270.922 23.3887 269.931 21.3257 270.905C18.52 273.282 18.652 276.83 22.9761 276.5C24.8576 277.655 22.9101 279.487 21.4082 279.636C17.2657 279.851 14.46 272.028 11.9348 279.719C11.3407 285.71 19.6423 284.472 20.9956 289.687C21.6393 292.328 22.7616 294.985 20.5005 297.18C20.484 298.682 20.3355 300.613 22.481 301.058C22.613 301.834 23.9499 305.234 24.6266 305.663C24.3295 308.7 25.2207 311.737 22.6461 313.899C23.7518 321.177 15.2852 323.273 9.97081 320.401C7.34663 321.689 1.09154 318.52 2.80798 323.125C3.12156 323.735 4.19434 323.488 4.70597 323.95C5.2341 324.445 5.41564 325.221 5.77873 325.848C5.33312 330.452 7.36314 334.034 2.14781 336.477C0.695436 339.035 4.4584 340.091 6.17484 338.54C8.98056 336.79 12.3639 336.014 13.1726 339.942C14.0639 340.553 15.4007 340.074 16.3909 340.52C17.7113 341.395 18.7676 343.177 20.5995 343.078C23.5703 340.52 23.6198 343.441 24.8741 345.471C30.106 347.699 36.5096 344.234 41.5104 347.122C46.016 348.855 41.0483 354.169 45.3889 355.11C56.5622 350.621 48.9373 362.273 49.5149 367.537C53.806 370.36 49.812 374.222 52.1556 378.084C51.7265 381.583 53.542 381.748 56.5292 381.302C58.3612 380.625 60.6058 381.962 62.2892 380.889C62.3057 376.169 66.3822 379.437 68.7919 379.982C72.9839 377.407 76.3013 383.547 80.6584 381.054C84.2398 376.615 89.6532 380.064 94.0763 378.496C94.7035 378.084 94.3074 376.912 94.819 376.351C95.8093 375.113 97.6743 375.294 98.1199 376.928C98.4169 377.671 97.6908 378.793 98.2849 379.322C100.232 380.526 103.121 380.427 105.365 380.147C107.461 379.503 109.491 377.589 111.785 378.661C115.845 381.203 118.783 385.527 118.04 390.445C118.057 396.387 128.207 392.492 128.026 398.45C134.281 399.193 130.897 395.034 137.796 395.958C143.985 388.663 142.467 395.826 147.088 395.958C150.719 395.941 154.251 395.974 157.519 394.324C161.216 393.532 165.688 395.76 169.105 394.522C169.798 393.647 168.527 392.129 169.105 391.172C171.63 389.208 175.657 392.376 175.706 387.145C175.112 381.12 181.681 389.637 180.591 383.794C177.555 380.048 182.159 379.899 181.549 376.417C181.384 373.727 180.426 370.64 184.42 371.432C188.992 369.865 188.183 376.07 193.894 372.588C195.016 371.68 196.155 371.994 197.442 372.307C200 372.093 201.799 369.931 204.523 370.591C206.949 369.848 209.111 367.339 211.702 369.353C213.682 368.924 214.953 369.601 215.911 371.267C220.185 371.317 224.724 370.31 229.213 370.888C235.353 368.363 232.629 373.941 235.914 373.281C237.63 372.258 238.884 372.423 240.601 373.281C249.431 370.822 247.945 376.631 253.804 379.024C258.359 375.228 260.984 382.177 266.347 372.423C268.377 367.356 270.606 372.885 272.47 367.537C276.778 364.154 279.468 367.818 283.38 368.396C284.7 367.438 286.053 367.637 287.588 367.818C289.321 366.844 290.196 367.62 290.84 369.254C293.546 370.211 296.979 367.587 297.161 364.748C297.557 362.306 293.777 358.46 297.639 357.668C298.597 356.661 297.953 355.324 297.837 354.219C298.283 352.651 300.033 352.948 301.287 352.882C304.918 351.116 309.572 351.132 313.632 351.066C315.514 348.772 319.425 348.838 319.854 352.304C320.052 356.942 324.657 354.4 324.921 360.639C324.492 363.676 323.568 368.214 325.499 370.69C329.014 370.921 331.671 368.264 332.48 365.144C334.741 364.517 336.507 366.828 337.646 368.396C342.3 369.881 341.062 364.055 340.897 361.414C350.024 351.924 342.779 350.109 347.317 345.339C348.505 341.972 342.944 340.553 344.115 336.972C346.129 334.248 349.314 335.14 350.469 331.179C353.077 331.525 358.623 325.237 359.365 329.545C357.385 330.832 357.352 331.723 359.167 333.176C358.441 339.216 363.343 340.173 365.67 334.711C370.918 333.39 366.726 331.228 373.427 331.641C374.582 329.974 372.453 327.614 372.948 325.798C374.879 320.897 381.266 324.23 382.141 327.812C385.227 327.878 387.224 323.999 390.377 323.306C392.374 320.88 395.394 322.151 394.866 325.32C393.182 328.555 397.523 329.033 399.454 327.333C402.738 326.541 401.897 322.96 403.861 320.913C410.099 312.083 412.459 328.934 418.879 324.461C428.666 316.226 422.841 327.861 437.546 314.031C439.444 312.859 439.559 315.714 441.094 315.665C444.114 314.278 447.085 315.846 450.089 314.707C450.37 314.13 451.426 313.552 451.426 313.552C456.278 317.398 456.493 310.482 461.279 311.918C462.863 313.849 466.263 315.665 468.458 313.453C469.679 311.374 464.563 308.683 468.359 307.809C470.406 308.139 472.172 308.419 473.905 306.95C480.028 308.172 478.064 303.782 480.028 300.151C482.256 297.906 485.87 301.29 487.587 297.857C489.253 297.18 489.303 295.629 489.881 294.226C495.657 292.41 491.63 292.097 494.865 290.364C493.561 289.241 493.578 287.542 493.396 285.941C492.736 283.927 490.772 280.89 490.343 278.778C490.343 278.778 487.702 277.21 487.042 277.127C486.382 277.045 482.025 277.127 482.025 277.127C475.918 277.474 475.357 269.09 470.158 270.46C469.861 275.312 464.151 271.235 462.83 276.385C462.302 276.913 461.592 277.457 460.85 277.375C458.968 276.616 458.457 271.879 455.75 274.239C456.047 277.127 456.608 279.834 452.367 279.256C449.462 278.299 449.808 274.124 446.029 275.873C446.029 275.873 444.791 278.431 444.709 279.009C444.626 279.586 442.315 281.567 442.315 281.567C440.566 284.142 438.982 287.855 435.483 288.152C433.007 287.211 428.65 289.076 427.825 285.842C429.838 281.996 426.273 281.583 424.524 278.844C421.669 277.672 422.015 280.89 421.223 282.475C417.18 286.205 413.466 280.115 412.41 276.797C409.588 275.51 406.518 278.332 404.917 280.511C403.299 281.418 402.161 280.791 400.807 279.851C397.639 278.91 399.702 285.908 394.8 286.271C390.855 286.931 392.605 280.28 388.38 280.676C386.201 281.336 384.534 281.616 383.115 279.438C380.672 276.22 377.8 280.197 378.593 283.069C373.427 291.304 372.156 286.98 367.469 281.666C360.521 278.101 352.648 271.004 345.238 277.721C337.184 277.87 337.019 271.532 331.077 281.336C328.766 281.154 327.76 282.64 326.786 284.307C320.91 284.505 314.358 287.475 308.582 285.71C307.525 283.729 308.45 280.296 305.281 280.775C304.72 283.085 301.782 285.132 303.053 287.855C303.053 288.268 300.907 288.68 300.412 288.845C297.755 287.591 295.296 285.346 296.055 282.26C300.445 279.504 298.646 274.272 297.375 270.229C297.491 267.868 296.088 267.175 295.395 265.376C296.154 263.28 295.362 261.597 294.157 259.781C294.157 258.643 295.23 254.946 295.89 254.021C295.279 246.958 285.327 245.918 288.48 240.191C289.998 237.22 287.786 235.817 286.912 233.276C287.176 230.189 289.701 228.143 288.067 224.957C288.15 224.215 289.305 222.333 290.46 222.977C294.504 222.977 296.897 220.485 294.9 216.474C292.523 213.421 290.229 212.216 292.589 207.909C295.048 201.208 300.973 209.873 299.257 198.27C298.762 196.174 295.527 194.375 297.524 192.263C301.865 190.233 300.709 197.379 303.697 198.27C308.45 195.745 312.889 202 309.539 205.763C308.945 207.513 308.961 210.153 310.364 212.018C311.701 212.662 313.5 210.879 314.969 211.11C318.154 215.864 318.781 210.17 321.306 208.717C322.297 208.255 325.812 210.335 326.571 210.038C330.186 208.371 326.472 205.499 324.756 204.03C323.303 198.815 320.448 192.642 324.096 187.724C323.799 184.093 326.588 181.155 325.664 177.508C323.716 174.521 327.545 173.679 329.658 175.098C331.308 175.577 331.572 177.244 332.001 178.663C335.088 180.99 337.613 178.218 339.824 176.435C347.4 174.504 345.353 179.538 348.803 183.185C350.668 183.911 351.047 181.469 351.031 180.132C347.185 174.075 358.491 179.109 359.514 173.959C371.661 167.391 384.386 161.631 396.929 156.118C405.627 154.996 408.548 166.037 415.777 169.173C417.576 170.13 420.513 170.13 422.444 169.256C422.741 169.223 423.897 172.127 423.27 172.309C423.385 172.936 423.484 173.58 423.6 174.207C429.508 178.185 433.057 171.599 437.76 176.435C438.371 176.848 441.292 177.92 442.2 178.085C445.088 178.201 445.039 183.169 447.564 183.268C448.851 183.169 450.848 183.581 451.673 183.845C454.033 185.776 455.387 189.506 459.001 188.467C466.082 188.879 476.892 189.473 478.278 198.27C476.182 203.75 466.857 203.898 464.695 209.642C464.761 212.084 464.481 213.107 467.583 212.695C470.521 211.804 470.389 207.876 473.096 206.687C477.816 206.753 485.127 209.097 487.422 203.139C495.261 198.881 488.214 188.648 490.953 182.558C497.076 179.95 505.263 180.116 510.065 174.735C511.897 172.144 510.643 163.71 515.66 165.674C518.268 173.712 527.461 169.355 533.534 169.701C536.604 168.414 536.901 165.064 537.726 162.208C542.447 153.907 529.705 158.561 525.381 157.439Z" fill="#D5DBEE" stroke="#041F6D" stroke-width="1.80046"></path>
                    <text x="220" y="320" pointer-events="none" data-region="SU" style="font-family: 'Open Sans', sans-serif; font-size: 20px; font-weight: 500; fill: #041f6d; z-index: 10;">Суғд</text>
                    <path id="SU2" data-target="su" d="M474.631 11.7889C481.431 10.2705 484.121 23.2428 488.362 27.1048C497.027 30.4717 479.764 7.59682 476.892 7.44828C473.839 5.9629 471.099 10.5181 474.631 11.7889Z" fill="#D5DBEE" stroke="#041F6D" stroke-width="0.627161"></path>
                    <path id="SU3" data-target="su" d="M495.716 217.28C492.003 220.449 493.983 214.953 490.616 216.702C489.758 217.643 488.883 219.772 486.985 219.343C481.523 216.785 475.548 216.537 469.854 215.481C468.451 209.836 461.784 215.035 464.754 219.095C466.85 224.542 475.383 222.858 477.446 228.569C474.261 233.487 480.466 237.266 484.361 233.503C485.781 231.737 482.777 227.133 485.352 226.836C488.24 226.885 490.847 223.782 493.67 223.947C495.7 223.947 497.862 218.171 495.716 217.28Z" fill="#D5DBEE" stroke="#041F6D" stroke-width="1.8" class="hover:fill-[#1A3992] transition-all ease-in"></path>
                    <path id="SU4" data-target="su" d="M329.806 181.898C326.884 180.363 326.389 186.255 326.719 188.054C330.07 191.619 333.635 183.614 329.806 181.898Z" fill="#D5DBEE" stroke="#041F6D" stroke-width="0.627161"></path>
                </svg>